<svg width="12" height="12" viewBox="0 0 12 12" fill="none" xmlns="http://www.w3.org/2000/svg">
<g clip-path="url(#clip0_1290_123)">
<path fill-rule="evenodd" clip-rule="evenodd" d="M2.5 3.875C2.70711 3.875 2.875 4.04289 2.875 4.25V10.625H9.125V4.25C9.125 4.04289 9.29289 3.875 9.5 3.875C9.70711 3.875 9.875 4.04289 9.875 4.25V11C9.875 11.2071 9.70711 11.375 9.5 11.375H2.5C2.29289 11.375 2.125 11.2071 2.125 11V4.25C2.125 4.04289 2.29289 3.875 2.5 3.875Z" fill="#4C5E8C"/>
<path fill-rule="evenodd" clip-rule="evenodd" d="M5.74483 0.725202C5.88871 0.591599 6.11129 0.591599 6.25517 0.725202L9.75517 3.9752C9.75856 3.97835 9.76189 3.98156 9.76517 3.98483L11.0152 5.23484C11.1616 5.38128 11.1616 5.61872 11.0152 5.76516C10.8687 5.91161 10.6313 5.91161 10.4848 5.76516L9.23975 4.52008L6 1.51174L2.76026 4.52007L1.51517 5.76516C1.36872 5.91161 1.13128 5.91161 0.984835 5.76516C0.838388 5.61872 0.838388 5.38128 0.984835 5.23484L2.23483 3.98483C2.23811 3.98156 2.24144 3.97835 2.24483 3.9752L5.74483 0.725202Z" fill="#4C5E8C"/>
<path fill-rule="evenodd" clip-rule="evenodd" d="M4.50994 4.46191C4.66904 4.32932 4.90551 4.35082 5.03809 4.50992L6.00001 5.66423L6.96193 4.50992C7.09451 4.35082 7.33097 4.32932 7.49008 4.46191C7.64918 4.5945 7.67068 4.83096 7.53809 4.99006L6.28809 6.49006C6.21684 6.57556 6.1113 6.62499 6.00001 6.62499C5.88872 6.62499 5.78317 6.57556 5.71193 6.49006L4.46193 4.99006C4.32934 4.83096 4.35084 4.5945 4.50994 4.46191Z" fill="#4C5E8C"/>
<path fill-rule="evenodd" clip-rule="evenodd" d="M4.125 7.75C4.125 7.54289 4.29289 7.375 4.5 7.375H7.5C7.70711 7.375 7.875 7.54289 7.875 7.75C7.875 7.95711 7.70711 8.125 7.5 8.125H4.5C4.29289 8.125 4.125 7.95711 4.125 7.75Z" fill="#4C5E8C"/>
<path fill-rule="evenodd" clip-rule="evenodd" d="M4.125 6.25C4.125 6.04289 4.29289 5.875 4.5 5.875H7.5C7.70711 5.875 7.875 6.04289 7.875 6.25C7.875 6.45711 7.70711 6.625 7.5 6.625H4.5C4.29289 6.625 4.125 6.45711 4.125 6.25Z" fill="#4C5E8C"/>
<path fill-rule="evenodd" clip-rule="evenodd" d="M6 5.875C6.20711 5.875 6.375 6.04289 6.375 6.25V9.25C6.375 9.45711 6.20711 9.625 6 9.625C5.79289 9.625 5.625 9.45711 5.625 9.25V6.25C5.625 6.04289 5.79289 5.875 6 5.875Z" fill="#4C5E8C"/>
</g>
<defs>
<clipPath id="clip0_1290_123">
<rect width="12" height="12" fill="white"/>
</clipPath>
</defs>
</svg>
