<svg viewBox="0 0 16 16" fill="currentColor" xmlns="http://www.w3.org/2000/svg">
<path fill-rule="evenodd" clip-rule="evenodd" d="M1.50022 2.00063C1.50023 1.35631 2.02256 0.833984 2.66688 0.833984H13.3335C13.9778 0.833984 14.5002 1.35632 14.5002 2.00065V14.0007C14.5002 14.645 13.9778 15.1673 13.3335 15.1673H2.66667C2.02233 15.1673 1.49999 14.645 1.5 14.0006L1.50022 2.00063ZM2.66688 1.83398C2.57484 1.83398 2.50022 1.9086 2.50022 2.00065L2.5 14.0007C2.5 14.0927 2.57462 14.1673 2.66667 14.1673H13.3335C13.4255 14.1673 13.5002 14.0927 13.5002 14.0007V2.00065C13.5002 1.9086 13.4255 1.83398 13.3335 1.83398H2.66688Z" fill="currentColor"/>
<path fill-rule="evenodd" clip-rule="evenodd" d="M3.83333 3.33398C3.83333 3.05784 4.05719 2.83398 4.33333 2.83398H11.6667C11.9428 2.83398 12.1667 3.05784 12.1667 3.33398V6.33398C12.1667 6.61013 11.9428 6.83398 11.6667 6.83398H4.33333C4.05719 6.83398 3.83333 6.61013 3.83333 6.33398V3.33398ZM4.83333 3.83398V5.83398H11.1667V3.83398H4.83333Z" fill="currentColor"/>
<path fill-rule="evenodd" clip-rule="evenodd" d="M3.64645 8.98043C3.84171 8.78517 4.15829 8.78517 4.35355 8.98043L6.68689 11.3138C6.88215 11.509 6.88215 11.8256 6.68689 12.0209C6.49162 12.2161 6.17504 12.2161 5.97978 12.0209L3.64645 9.68754C3.45118 9.49227 3.45118 9.17569 3.64645 8.98043Z" fill="currentColor"/>
<path fill-rule="evenodd" clip-rule="evenodd" d="M6.68689 8.98043C6.88215 9.17569 6.88215 9.49227 6.68689 9.68754L4.35355 12.0209C4.15829 12.2161 3.84171 12.2161 3.64645 12.0209C3.45118 11.8256 3.45118 11.509 3.64645 11.3138L5.97978 8.98043C6.17504 8.78517 6.49162 8.78517 6.68689 8.98043Z" fill="currentColor"/>
<path fill-rule="evenodd" clip-rule="evenodd" d="M8.83333 11.6673C8.83333 11.3912 9.05719 11.1673 9.33333 11.1673H12C12.2761 11.1673 12.5 11.3912 12.5 11.6673C12.5 11.9435 12.2761 12.1673 12 12.1673H9.33333C9.05719 12.1673 8.83333 11.9435 8.83333 11.6673Z" fill="currentColor"/>
<path fill-rule="evenodd" clip-rule="evenodd" d="M8.83333 9.66732C8.83333 9.39117 9.05719 9.16732 9.33333 9.16732H12C12.2761 9.16732 12.5 9.39117 12.5 9.66732C12.5 9.94346 12.2761 10.1673 12 10.1673H9.33333C9.05719 10.1673 8.83333 9.94346 8.83333 9.66732Z" fill="currentColor"/>
</svg>
