<svg viewBox="0 0 16 16" fill="none" xmlns="http://www.w3.org/2000/svg">
<path fill-rule="evenodd" clip-rule="evenodd" d="M2.00065 3.16732C1.9086 3.16732 1.83398 3.24194 1.83398 3.33398V14.0007C1.83398 14.0927 1.9086 14.1673 2.00065 14.1673H14.0007C14.0927 14.1673 14.1673 14.0927 14.1673 14.0007V3.33398C14.1673 3.24194 14.0927 3.16732 14.0007 3.16732H2.00065ZM0.833984 3.33398C0.833984 2.68965 1.35632 2.16732 2.00065 2.16732H14.0007C14.645 2.16732 15.1673 2.68965 15.1673 3.33398V14.0007C15.1673 14.645 14.645 15.1673 14.0007 15.1673H2.00065C1.35632 15.1673 0.833984 14.645 0.833984 14.0007V3.33398Z" fill="currentColor"/>
<path fill-rule="evenodd" clip-rule="evenodd" d="M0.833984 6.66732C0.833984 6.39118 1.05784 6.16732 1.33398 6.16732H14.6673C14.9435 6.16732 15.1673 6.39118 15.1673 6.66732C15.1673 6.94346 14.9435 7.16732 14.6673 7.16732H1.33398C1.05784 7.16732 0.833984 6.94346 0.833984 6.66732Z" fill="currentColor"/>
<path fill-rule="evenodd" clip-rule="evenodd" d="M0.833984 10.6673C0.833984 10.3912 1.05784 10.1673 1.33398 10.1673H14.6673C14.9435 10.1673 15.1673 10.3912 15.1673 10.6673C15.1673 10.9435 14.9435 11.1673 14.6673 11.1673H1.33398C1.05784 11.1673 0.833984 10.9435 0.833984 10.6673Z" fill="currentColor"/>
<path fill-rule="evenodd" clip-rule="evenodd" d="M5.66732 0.833984C5.94346 0.833984 6.16732 1.05784 6.16732 1.33398V4.00065C6.16732 4.27679 5.94346 4.50065 5.66732 4.50065C5.39118 4.50065 5.16732 4.27679 5.16732 4.00065V1.33398C5.16732 1.05784 5.39118 0.833984 5.66732 0.833984Z" fill="currentColor"/>
<path fill-rule="evenodd" clip-rule="evenodd" d="M10.334 0.833984C10.6101 0.833984 10.834 1.05784 10.834 1.33398V4.00065C10.834 4.27679 10.6101 4.50065 10.334 4.50065C10.0578 4.50065 9.83398 4.27679 9.83398 4.00065V1.33398C9.83398 1.05784 10.0578 0.833984 10.334 0.833984Z" fill="currentColor"/>
<path fill-rule="evenodd" clip-rule="evenodd" d="M5.66732 6.16732C5.94346 6.16732 6.16732 6.39118 6.16732 6.66732V14.6673C6.16732 14.9435 5.94346 15.1673 5.66732 15.1673C5.39118 15.1673 5.16732 14.9435 5.16732 14.6673V6.66732C5.16732 6.39118 5.39118 6.16732 5.66732 6.16732Z" fill="currentColor"/>
<path fill-rule="evenodd" clip-rule="evenodd" d="M10.334 6.16732C10.6101 6.16732 10.834 6.39118 10.834 6.66732V14.6673C10.834 14.9435 10.6101 15.1673 10.334 15.1673C10.0578 15.1673 9.83398 14.9435 9.83398 14.6673V6.66732C9.83398 6.39118 10.0578 6.16732 10.334 6.16732Z" fill="currentColor"/>
<path fill-rule="evenodd" clip-rule="evenodd" d="M14.6673 3.83398C14.9435 3.83398 15.1673 4.05784 15.1673 4.33398V13.0007C15.1673 13.2768 14.9435 13.5007 14.6673 13.5007C14.3912 13.5007 14.1673 13.2768 14.1673 13.0007V4.33398C14.1673 4.05784 14.3912 3.83398 14.6673 3.83398Z" fill="currentColor"/>
<path fill-rule="evenodd" clip-rule="evenodd" d="M1.33398 3.83398C1.61013 3.83398 1.83398 4.05784 1.83398 4.33398V13.0007C1.83398 13.2768 1.61013 13.5007 1.33398 13.5007C1.05784 13.5007 0.833984 13.2768 0.833984 13.0007V4.33398C0.833984 4.05784 1.05784 3.83398 1.33398 3.83398Z" fill="currentColor"/>
<path fill-rule="evenodd" clip-rule="evenodd" d="M4.16732 14.6673C4.16732 14.3912 4.39118 14.1673 4.66732 14.1673H11.334C11.6101 14.1673 11.834 14.3912 11.834 14.6673C11.834 14.9435 11.6101 15.1673 11.334 15.1673H4.66732C4.39118 15.1673 4.16732 14.9435 4.16732 14.6673Z" fill="currentColor"/>
</svg>
