<svg width="12" height="12" viewBox="0 0 12 12" fill="currentColor" xmlns="http://www.w3.org/2000/svg">
<g clip-path="url(#clip0_1002_869)">
<path fill-rule="evenodd" clip-rule="evenodd" d="M2.1993 2.1993C3.17159 1.22703 4.51585 0.625 6 0.625C7.48415 0.625 8.82841 1.22703 9.80069 2.1993C10.773 3.17158 11.375 4.51585 11.375 6C11.375 7.48415 10.773 8.82841 9.80069 9.80069C8.82841 10.773 7.48415 11.375 6 11.375C4.51585 11.375 3.17159 10.773 2.1993 9.80069C1.22703 8.82842 0.625 7.48415 0.625 6C0.625 4.51585 1.22703 3.17158 2.1993 2.1993ZM6 1.375C4.72275 1.375 3.56701 1.89226 2.72963 2.72963C1.89226 3.56702 1.375 4.72275 1.375 6C1.375 7.27725 1.89226 8.43299 2.72963 9.27036C3.56701 10.1077 4.72275 10.625 6 10.625C7.27725 10.625 8.43299 10.1077 9.27036 9.27036C10.1077 8.43299 10.625 7.27725 10.625 6C10.625 4.72275 10.1077 3.56701 9.27036 2.72963C8.43299 1.89226 7.27725 1.375 6 1.375Z" fill="currentColor"/>
<path fill-rule="evenodd" clip-rule="evenodd" d="M8.76517 4.23483C8.91161 4.38128 8.91161 4.61872 8.76517 4.76516L5.76517 7.76517C5.61872 7.91161 5.38128 7.91161 5.23483 7.76517L3.73483 6.26517C3.58839 6.11872 3.58839 5.88128 3.73483 5.73483C3.88128 5.58839 4.11872 5.58839 4.26517 5.73483L5.5 6.96967L8.23484 4.23483C8.38128 4.08839 8.61872 4.08839 8.76517 4.23483Z" fill="currentColor"/>
</g>
<defs>
<clipPath id="clip0_1002_869">
<rect width="12" height="12" fill="white"/>
</clipPath>
</defs>
</svg>
