<svg viewBox="0 0 48 48" fill="currentColor" xmlns="http://www.w3.org/2000/svg">
<path fill-rule="evenodd" clip-rule="evenodd" d="M2.5 42C2.5 41.1716 3.17157 40.5 4 40.5H44C44.8284 40.5 45.5 41.1716 45.5 42C45.5 42.8284 44.8284 43.5 44 43.5H4C3.17157 43.5 2.5 42.8284 2.5 42Z" fill="currentColor"/>
<path fill-rule="evenodd" clip-rule="evenodd" d="M10 27.5C9.72386 27.5 9.5 27.7239 9.5 28V40C9.5 40.2761 9.72386 40.5 10 40.5H14C14.2761 40.5 14.5 40.2761 14.5 40V28C14.5 27.7239 14.2761 27.5 14 27.5H10ZM6.5 28C6.5 26.067 8.067 24.5 10 24.5H14C15.933 24.5 17.5 26.067 17.5 28V40C17.5 41.933 15.933 43.5 14 43.5H10C8.067 43.5 6.5 41.933 6.5 40V28Z" fill="currentColor"/>
<path fill-rule="evenodd" clip-rule="evenodd" d="M10.5 34C10.5 33.1716 11.1716 32.5 12 32.5H13C13.8284 32.5 14.5 33.1716 14.5 34C14.5 34.8284 13.8284 35.5 13 35.5H12C11.1716 35.5 10.5 34.8284 10.5 34Z" fill="currentColor"/>
<path fill-rule="evenodd" clip-rule="evenodd" d="M18 5.5C17.7239 5.5 17.5 5.72386 17.5 6V40C17.5 40.2761 17.7239 40.5 18 40.5H38C38.2761 40.5 38.5 40.2761 38.5 40V6C38.5 5.72386 38.2761 5.5 38 5.5H18ZM14.5 6C14.5 4.067 16.067 2.5 18 2.5H38C39.933 2.5 41.5 4.067 41.5 6V40C41.5 41.933 39.933 43.5 38 43.5H18C16.067 43.5 14.5 41.933 14.5 40V6Z" fill="currentColor"/>
<path d="M26 10H22V14H26V10Z" fill="currentColor"/>
<path d="M34 10H30V14H34V10Z" fill="currentColor"/>
<path d="M26 17H22V21H26V17Z" fill="currentColor"/>
<path d="M34 17H30V21H34V17Z" fill="currentColor"/>
<path d="M34 24H30V28H34V24Z" fill="currentColor"/>
<path d="M34 31H30V35H34V31Z" fill="currentColor"/>
</svg>
