<svg viewBox="0 0 16 16" fill="currentColor" xmlns="http://www.w3.org/2000/svg">
<path fill-rule="evenodd" clip-rule="evenodd" d="M2.31295 2.31246C2.50821 2.1172 2.8248 2.1172 3.02006 2.31246L13.6867 12.9791C13.882 13.1744 13.882 13.491 13.6867 13.6862C13.4915 13.8815 13.1749 13.8815 12.9796 13.6862L2.31295 3.01957C2.11769 2.82431 2.11769 2.50772 2.31295 2.31246Z" fill="currentColor"/>
<path fill-rule="evenodd" clip-rule="evenodd" d="M13.6867 2.31246C13.882 2.50772 13.882 2.82431 13.6867 3.01957L3.02006 13.6862C2.8248 13.8815 2.50821 13.8815 2.31295 13.6862C2.11769 13.491 2.11769 13.1744 2.31295 12.9791L12.9796 2.31246C13.1749 2.1172 13.4915 2.1172 13.6867 2.31246Z" fill="currentColor"/>
</svg>
