<svg width="16" height="17" viewBox="0 0 16 17" fill="none" xmlns="http://www.w3.org/2000/svg">
<path d="M7.39992 15.8451H4.59992C1.99325 15.8451 0.833252 14.6851 0.833252 12.0784V9.27838C0.833252 6.67172 1.99325 5.51172 4.59992 5.51172H7.39992C10.0066 5.51172 11.1666 6.67172 11.1666 9.27838V12.0784C11.1666 14.6851 10.0066 15.8451 7.39992 15.8451ZM4.59992 6.51172C2.53325 6.51172 1.83325 7.21172 1.83325 9.27838V12.0784C1.83325 14.1451 2.53325 14.8451 4.59992 14.8451H7.39992C9.46659 14.8451 10.1666 14.1451 10.1666 12.0784V9.27838C10.1666 7.21172 9.46659 6.51172 7.39992 6.51172H4.59992Z" fill="currentColor"/>
<path d="M11.3999 11.8451H10.6666C10.3933 11.8451 10.1666 11.6184 10.1666 11.3451V9.27838C10.1666 7.21172 9.46659 6.51172 7.39992 6.51172H5.33325C5.05992 6.51172 4.83325 6.28505 4.83325 6.01172V5.27839C4.83325 2.67172 5.99325 1.51172 8.59992 1.51172H11.3999C14.0066 1.51172 15.1666 2.67172 15.1666 5.27839V8.07839C15.1666 10.6851 14.0066 11.8451 11.3999 11.8451ZM11.1666 10.8451H11.3999C13.4666 10.8451 14.1666 10.1451 14.1666 8.07839V5.27839C14.1666 3.21172 13.4666 2.51172 11.3999 2.51172H8.59992C6.53325 2.51172 5.83325 3.21172 5.83325 5.27839V5.51172H7.39992C10.0066 5.51172 11.1666 6.67172 11.1666 9.27838V10.8451Z" fill="currentColor"/>
</svg>
