<svg viewBox="0 0 20 20" fill="none" xmlns="http://www.w3.org/2000/svg">
<path fill-rule="evenodd" clip-rule="evenodd" d="M10.0002 0.208984C10.3453 0.208984 10.6252 0.488806 10.6252 0.833984V19.1673C10.6252 19.5125 10.3453 19.7923 10.0002 19.7923C9.65498 19.7923 9.37516 19.5125 9.37516 19.1673V0.833984C9.37516 0.488806 9.65498 0.208984 10.0002 0.208984Z" fill="currentColor"/>
<path fill-rule="evenodd" clip-rule="evenodd" d="M3.9585 6.25065C3.9585 3.83439 5.91723 1.87565 8.3335 1.87565H14.5833L14.5834 3.12565H8.3335C6.60759 3.12565 5.2085 4.52475 5.2085 6.25065C5.2085 7.97656 6.60759 9.37565 8.3335 9.37565C8.67867 9.37565 8.9585 9.65547 8.9585 10.0007C8.9585 10.3458 8.67867 10.6257 8.3335 10.6257C5.91723 10.6257 3.9585 8.66691 3.9585 6.25065ZM15.2085 2.50065C15.2085 2.84583 14.9286 3.12565 14.5834 3.12565L14.5833 1.87565C14.9285 1.87565 15.2085 2.15547 15.2085 2.50065Z" fill="currentColor"/>
<path fill-rule="evenodd" clip-rule="evenodd" d="M7.7085 10.0007C7.7085 9.65547 7.98832 9.37565 8.3335 9.37565H11.6668C14.0831 9.37565 16.0418 11.3344 16.0418 13.7507C16.0418 16.1669 14.0831 18.1257 11.6668 18.1257H5.41702L5.41688 16.8757H11.6668C13.3927 16.8757 14.7918 15.4766 14.7918 13.7507C14.7918 12.0247 13.3927 10.6257 11.6668 10.6257H8.3335C7.98832 10.6257 7.7085 10.3458 7.7085 10.0007ZM4.79183 17.5007C4.79183 17.1555 5.0717 16.8757 5.41688 16.8757L5.41702 18.1257C5.07184 18.1257 4.79183 17.8458 4.79183 17.5007Z" fill="currentColor"/>
</svg>
