<svg viewBox="0 0 24 24" fill="currentColor" xmlns="http://www.w3.org/2000/svg">
<path d="M5.46967 5.46967C5.76256 5.17678 6.23744 5.17678 6.53033 5.46967L12.5303 11.4697C12.8232 11.7626 12.8232 12.2374 12.5303 12.5303L6.53033 18.5303C6.23744 18.8232 5.76256 18.8232 5.46967 18.5303C5.17678 18.2374 5.17678 17.7626 5.46967 17.4697L10.9393 12L5.46967 6.53033C5.17678 6.23744 5.17678 5.76256 5.46967 5.46967Z" fill="currentColor"/>
<path d="M11.4697 5.46967C11.7626 5.17678 12.2374 5.17678 12.5303 5.46967L18.5303 11.4697C18.8232 11.7626 18.8232 12.2374 18.5303 12.5303L12.5303 18.5303C12.2374 18.8232 11.7626 18.8232 11.4697 18.5303C11.1768 18.2374 11.1768 17.7626 11.4697 17.4697L16.9393 12L11.4697 6.53033C11.1768 6.23744 11.1768 5.76256 11.4697 5.46967Z" fill="currentColor"/>
</svg>
