<svg viewBox="0 0 14 14" fill="currentColor" xmlns="http://www.w3.org/2000/svg">
<path d="M6.75415 0C7.16836 0 7.50415 0.335786 7.50415 0.75V12.6998C7.50415 13.114 7.16836 13.4498 6.75415 13.4498C6.33994 13.4498 6.00415 13.114 6.00415 12.6998V0.75C6.00415 0.335786 6.33994 0 6.75415 0Z" fill="currentColor"/>
<path d="M0.21967 6.21967C0.512563 5.92678 0.987437 5.92678 1.28033 6.21967L6.75 11.6893L12.2197 6.21967C12.5126 5.92678 12.9874 5.92678 13.2803 6.21967C13.5732 6.51256 13.5732 6.98744 13.2803 7.28033L7.28033 13.2803C6.98744 13.5732 6.51256 13.5732 6.21967 13.2803L0.21967 7.28033C-0.0732233 6.98744 -0.0732233 6.51256 0.21967 6.21967Z" fill="currentColor"/>
</svg>
