<svg viewBox="0 0 16 16" fill="currentColor" xmlns="http://www.w3.org/2000/svg">
<path d="M14 7.5C14.2761 7.5 14.5 7.72386 14.5 8V14C14.5 14.2761 14.2761 14.5 14 14.5H2C1.72386 14.5 1.5 14.2761 1.5 14V8.00277C1.5 7.72662 1.72386 7.50277 2 7.50277C2.27614 7.50277 2.5 7.72662 2.5 8.00277V13.5H13.5V8C13.5 7.72386 13.7239 7.5 14 7.5Z" fill="currentColor"/>
<path d="M8.35355 10.6868C8.15829 10.882 7.84171 10.882 7.64645 10.6868L4.64645 7.68682C4.45118 7.49156 4.45118 7.17498 4.64645 6.97972C4.84171 6.78445 5.15829 6.78445 5.35355 6.97972L8 9.62616L10.6464 6.97972C10.8417 6.78445 11.1583 6.78445 11.3536 6.97972C11.5488 7.17498 11.5488 7.49156 11.3536 7.68682L8.35355 10.6868Z" fill="currentColor"/>
<path d="M7.99723 10.8327C7.72109 10.8327 7.49723 10.6088 7.49723 10.3327V1.66602C7.49723 1.38987 7.72109 1.16602 7.99723 1.16602C8.27338 1.16602 8.49723 1.38987 8.49723 1.66602V10.3327C8.49723 10.6088 8.27338 10.8327 7.99723 10.8327Z" fill="currentColor"/>
</svg>
