<svg viewBox="0 0 16 16" fill="currentColor" xmlns="http://www.w3.org/2000/svg">
<path d="M11.146 1.854a1.207 1.207 0 0 1 1.708 0l1.292 1.292a1.207 1.207 0 0 1 0 1.708l-7.95 7.95a1.5 1.5 0 0 1-.638.378l-2.97.848a.5.5 0 0 1-.618-.618l.848-2.97a1.5 1.5 0 0 1 .378-.638l7.95-7.95Zm1 .708a.207.207 0 0 0-.292 0L10.71 3.707l1.583 1.584 1.146-1.147a.207.207 0 0 0 0-.292l-1.293-1.29Zm-.564 3.43L10 4.41 3.464 10.94a.5.5 0 0 0-.126.213l-.62 2.169 2.169-.62a.5.5 0 0 0 .213-.126l6.482-6.483Z" fill="currentColor"/>
</svg>
