<svg viewBox="0 0 16 16" fill="currentColor" xmlns="http://www.w3.org/2000/svg">
<path d="M2.66667 2.5C2.57462 2.5 2.5 2.57462 2.5 2.66667V13.3333C2.5 13.4254 2.57461 13.5 2.66667 13.5H13.3333C13.4254 13.5 13.5 13.4254 13.5 13.3333V8.66667C13.5 8.39052 13.7239 8.16667 14 8.16667C14.2761 8.16667 14.5 8.39052 14.5 8.66667V13.3333C14.5 13.9777 13.9777 14.5 13.3333 14.5H2.66667C2.02234 14.5 1.5 13.9777 1.5 13.3333V2.66667C1.5 2.02233 2.02233 1.5 2.66667 1.5H7.33333C7.60948 1.5 7.83333 1.72386 7.83333 2C7.83333 2.27614 7.60948 2.5 7.33333 2.5H2.66667Z" fill="currentColor"/>
<path d="M11.5649 1.5C11.6976 1.49997 11.8249 1.55269 11.9187 1.64652L14.3536 4.08256C14.5488 4.2778 14.5488 4.59426 14.3536 4.78951L7.45936 11.6868C7.36559 11.7806 7.23838 11.8333 7.10573 11.8333H4.66667C4.39052 11.8333 4.16667 11.6095 4.16667 11.3333V8.90663C4.16667 8.77413 4.21926 8.64704 4.3129 8.55329L11.2113 1.64666C11.305 1.55278 11.4323 1.50003 11.5649 1.5ZM11.5652 2.7074L5.16667 9.11357V10.8333H6.89856L13.293 4.43603L11.5652 2.7074Z" fill="currentColor"/>
</svg>
