<svg viewBox="0 0 12 12" fill="currentColor" xmlns="http://www.w3.org/2000/svg">
<path fill-rule="evenodd" clip-rule="evenodd" d="M0.625 6C0.625 3.03147 3.03147 0.625 6 0.625C8.96853 0.625 11.375 3.03147 11.375 6C11.375 8.96853 8.96853 11.375 6 11.375C3.03147 11.375 0.625 8.96853 0.625 6ZM6 1.375C3.44568 1.375 1.375 3.44568 1.375 6C1.375 8.55432 3.44568 10.625 6 10.625C8.55432 10.625 10.625 8.55432 10.625 6C10.625 3.44568 8.55432 1.375 6 1.375Z" fill="currentColor"/>
<path fill-rule="evenodd" clip-rule="evenodd" d="M4.125 5.5C4.125 5.29289 4.29289 5.125 4.5 5.125H7.5C7.70711 5.125 7.875 5.29289 7.875 5.5C7.875 5.70711 7.70711 5.875 7.5 5.875H4.5C4.29289 5.875 4.125 5.70711 4.125 5.5Z" fill="currentColor"/>
<path fill-rule="evenodd" clip-rule="evenodd" d="M4.125 7C4.125 6.79289 4.29289 6.625 4.5 6.625H7.5C7.70711 6.625 7.875 6.79289 7.875 7C7.875 7.20711 7.70711 7.375 7.5 7.375H4.5C4.29289 7.375 4.125 7.20711 4.125 7Z" fill="currentColor"/>
<path fill-rule="evenodd" clip-rule="evenodd" d="M6.00195 5.125C6.20906 5.125 6.37695 5.29289 6.37695 5.5V8.5C6.37695 8.70711 6.20906 8.875 6.00195 8.875C5.79485 8.875 5.62695 8.70711 5.62695 8.5V5.5C5.62695 5.29289 5.79485 5.125 6.00195 5.125Z" fill="currentColor"/>
<path fill-rule="evenodd" clip-rule="evenodd" d="M4.23483 3.48483C4.38128 3.33839 4.61872 3.33839 4.76516 3.48483L6 4.71967L7.23483 3.48483C7.38128 3.33839 7.61872 3.33839 7.76517 3.48483C7.91161 3.63128 7.91161 3.86872 7.76517 4.01517L6.26517 5.51517C6.11872 5.66161 5.88128 5.66161 5.73483 5.51517L4.23483 4.01517C4.08839 3.86872 4.08839 3.63128 4.23483 3.48483Z" fill="currentColor"/>
</svg>
