<svg width="12" height="12" viewBox="0 0 12 12" fill="none" xmlns="http://www.w3.org/2000/svg">
<g clip-path="url(#clip0_1290_1993)">
<path fill-rule="evenodd" clip-rule="evenodd" d="M0.625 6C0.625 3.03147 3.03147 0.625 6 0.625C8.96853 0.625 11.375 3.03147 11.375 6C11.375 8.96853 8.96853 11.375 6 11.375C3.03147 11.375 0.625 8.96853 0.625 6ZM6 1.375C3.44568 1.375 1.375 3.44568 1.375 6C1.375 8.55432 3.44568 10.625 6 10.625C8.55432 10.625 10.625 8.55432 10.625 6C10.625 3.44568 8.55432 1.375 6 1.375Z" fill="#4C5E8C"/>
<path fill-rule="evenodd" clip-rule="evenodd" d="M6.08839 4.85097C6.03957 4.80215 5.96043 4.80215 5.91161 4.85097L4.85095 5.91163C4.80214 5.96044 4.80214 6.03959 4.85095 6.08841L5.91161 7.14907C5.96043 7.19788 6.03957 7.19788 6.08839 7.14907L7.14905 6.08841C7.19786 6.03959 7.19786 5.96044 7.14905 5.91163L6.08839 4.85097ZM5.38128 4.32064C5.72299 3.97893 6.27701 3.97893 6.61872 4.32064L7.67938 5.3813C8.02109 5.72301 8.02109 6.27703 7.67938 6.61873L6.61872 7.6794C6.27701 8.0211 5.72299 8.0211 5.38128 7.6794L4.32062 6.61873C3.97891 6.27703 3.97891 5.72301 4.32062 5.3813L5.38128 4.32064Z" fill="#4C5E8C"/>
</g>
<defs>
<clipPath id="clip0_1290_1993">
<rect width="12" height="12" fill="white"/>
</clipPath>
</defs>
</svg>
