<svg viewBox="0 0 24 24" fill="currentColor" xmlns="http://www.w3.org/2000/svg">
<path d="M17.5303 5.46967C17.8232 5.76256 17.8232 6.23744 17.5303 6.53033L12.0607 12L17.5303 17.4697C17.8232 17.7626 17.8232 18.2374 17.5303 18.5303C17.2374 18.8232 16.7626 18.8232 16.4697 18.5303L10.4697 12.5303C10.1768 12.2374 10.1768 11.7626 10.4697 11.4697L16.4697 5.46967C16.7626 5.17678 17.2374 5.17678 17.5303 5.46967Z" fill="currentColor"/>
<path d="M7 5.25C7.41421 5.25 7.75 5.58579 7.75 6V18C7.75 18.4142 7.41421 18.75 7 18.75C6.58579 18.75 6.25 18.4142 6.25 18V6C6.25 5.58579 6.58579 5.25 7 5.25Z" fill="currentColor"/>
</svg>
