<svg viewBox="0 0 16 16" fill="currentColor" xmlns="http://www.w3.org/2000/svg">
<g clip-path="url(#clip0_1002_3671)">
<path d="M8.83325 4.50065C8.83325 4.04042 8.46015 3.66732 7.99992 3.66732C7.53969 3.66732 7.16658 4.04042 7.16658 4.50065C7.16658 4.96088 7.53969 5.33398 7.99992 5.33398C8.46015 5.33398 8.83325 4.96088 8.83325 4.50065Z" fill="currentColor"/>
<path d="M6.99992 6.66732C6.99992 6.39118 7.22378 6.16732 7.49992 6.16732H8.16658C8.44273 6.16732 8.66658 6.39118 8.66658 6.66732V10.834H9.33325C9.60939 10.834 9.83325 11.0578 9.83325 11.334C9.83325 11.6101 9.60939 11.834 9.33325 11.834H6.99992C6.72378 11.834 6.49992 11.6101 6.49992 11.334C6.49992 11.0578 6.72378 10.834 6.99992 10.834H7.66658V7.16732H7.49992C7.22378 7.16732 6.99992 6.94346 6.99992 6.66732Z" fill="currentColor"/>
<path d="M7.99992 0.833984C6.02105 0.833984 4.2287 1.63669 2.93232 2.93305C1.63596 4.22943 0.833252 6.02178 0.833252 8.00065C0.833252 9.97952 1.63596 11.7719 2.93232 13.0682C4.2287 14.3646 6.02105 15.1673 7.99992 15.1673C9.97879 15.1673 11.7711 14.3646 13.0675 13.0682C14.3639 11.7719 15.1666 9.97952 15.1666 8.00065C15.1666 6.02178 14.3639 4.22943 13.0675 2.93305C11.7711 1.63669 9.97879 0.833984 7.99992 0.833984ZM3.63942 3.64016C4.75594 2.52366 6.29692 1.83398 7.99992 1.83398C9.70292 1.83398 11.2439 2.52366 12.3604 3.64016C13.4769 4.75667 14.1666 6.29765 14.1666 8.00065C14.1666 9.70365 13.4769 11.2446 12.3604 12.3611C11.2439 13.4776 9.70292 14.1673 7.99992 14.1673C6.29692 14.1673 4.75594 13.4776 3.63943 12.3611C2.52293 11.2446 1.83325 9.70365 1.83325 8.00065C1.83325 6.29765 2.52293 4.75667 3.63942 3.64016Z" fill="currentColor"/>
</g>
</svg>
