<svg class="animate-spin" viewBox="0 0 45 45" fill="none" xmlns="http://www.w3.org/2000/svg">
<path fill-rule="evenodd" clip-rule="evenodd" d="M20.8333 1.5625C20.8333 0.699555 21.5329 0 22.3958 0C34.7647 0 44.7917 10.027 44.7917 22.3958C44.7917 34.7647 34.7647 44.7917 22.3958 44.7917C10.027 44.7917 0 34.7647 0 22.3958C0 21.5329 0.699555 20.8333 1.5625 20.8333C2.42545 20.8333 3.125 21.5329 3.125 22.3958C3.125 33.0388 11.7528 41.6667 22.3958 41.6667C33.0388 41.6667 41.6667 33.0388 41.6667 22.3958C41.6667 11.7528 33.0388 3.125 22.3958 3.125C21.5329 3.125 20.8333 2.42545 20.8333 1.5625Z" fill="#4C5E8C"/>
</svg>
