<svg class="animate-spin" viewBox="0 0 50 50" fill="none" xmlns="http://www.w3.org/2000/svg">
<path fill-rule="evenodd" clip-rule="evenodd" d="M23.4373 4.16602C23.4373 3.30307 24.1369 2.60352 24.9998 2.60352C37.3687 2.60352 47.3957 12.6305 47.3957 24.9994C47.3957 37.3682 37.3687 47.3952 24.9998 47.3952C12.631 47.3952 2.604 37.3682 2.604 24.9994C2.604 24.1364 3.30356 23.4369 4.1665 23.4369C5.02945 23.4369 5.729 24.1364 5.729 24.9994C5.729 35.6423 14.3568 44.2702 24.9998 44.2702C35.6428 44.2702 44.2707 35.6423 44.2707 24.9994C44.2707 14.3564 35.6428 5.72852 24.9998 5.72852C24.1369 5.72852 23.4373 5.02896 23.4373 4.16602Z" fill="#4C5E8C"/>
</svg>
