<svg viewBox="0 0 12 12" fill="currentColor" xmlns="http://www.w3.org/2000/svg">
<path d="M2 5.875C1.93096 5.875 1.875 5.93096 1.875 6V10.5C1.875 10.569 1.93096 10.625 2 10.625H10C10.069 10.625 10.125 10.569 10.125 10.5V6C10.125 5.93096 10.069 5.875 10 5.875H2ZM1.125 6C1.125 5.51675 1.51675 5.125 2 5.125H10C10.4832 5.125 10.875 5.51675 10.875 6V10.5C10.875 10.9832 10.4832 11.375 10 11.375H2C1.51675 11.375 1.125 10.9832 1.125 10.5V6Z" fill="currentColor"/>
<path d="M6 1.375C4.82641 1.375 3.875 2.3264 3.875 3.5V5.5C3.875 5.70711 3.70711 5.875 3.5 5.875C3.29289 5.875 3.125 5.70711 3.125 5.5V3.5C3.125 1.91218 4.41219 0.625 6 0.625C7.58781 0.625 8.875 1.91218 8.875 3.5V5.5C8.875 5.70711 8.70711 5.875 8.5 5.875C8.29289 5.875 8.125 5.70711 8.125 5.5V3.5C8.125 2.3264 7.17359 1.375 6 1.375Z" fill="currentColor"/>
<path d="M6 7.125C6.20711 7.125 6.375 7.29289 6.375 7.5V9C6.375 9.20711 6.20711 9.375 6 9.375C5.79289 9.375 5.625 9.20711 5.625 9V7.5C5.625 7.29289 5.79289 7.125 6 7.125Z" fill="currentColor"/>
</svg>
