<svg viewBox="0 0 16 16" fill="currentColor" xmlns="http://www.w3.org/2000/svg">
<path fill-rule="evenodd" clip-rule="evenodd" d="M0.833252 3C0.833252 2.72386 1.05711 2.5 1.33325 2.5H14.6666C14.9427 2.5 15.1666 2.72386 15.1666 3V13C15.1666 13.2761 14.9427 13.5 14.6666 13.5H1.33325C1.05711 13.5 0.833252 13.2761 0.833252 13V3ZM1.83325 3.5V12.5H14.1666V3.5H1.83325Z" fill="currentColor"/>
<path fill-rule="evenodd" clip-rule="evenodd" d="M0.933281 2.70003C1.09897 2.47912 1.41237 2.43434 1.63328 2.60003L7.99995 7.37503L14.3666 2.60003C14.5875 2.43434 14.9009 2.47912 15.0666 2.70003C15.2323 2.92094 15.1875 3.23434 14.9666 3.40003L8.29995 8.40003C8.12217 8.53336 7.87773 8.53336 7.69995 8.40003L1.03328 3.40003C0.812367 3.23434 0.767596 2.92094 0.933281 2.70003Z" fill="currentColor"/>
<path fill-rule="evenodd" clip-rule="evenodd" d="M0.833252 3C0.833252 2.72386 1.05711 2.5 1.33325 2.5H7.99992C8.27606 2.5 8.49992 2.72386 8.49992 3C8.49992 3.27614 8.27606 3.5 7.99992 3.5H1.83325V8C1.83325 8.27614 1.60939 8.5 1.33325 8.5C1.05711 8.5 0.833252 8.27614 0.833252 8V3Z" fill="currentColor"/>
<path fill-rule="evenodd" clip-rule="evenodd" d="M7.49992 3C7.49992 2.72386 7.72378 2.5 7.99992 2.5H14.6666C14.9427 2.5 15.1666 2.72386 15.1666 3V8C15.1666 8.27614 14.9427 8.5 14.6666 8.5C14.3904 8.5 14.1666 8.27614 14.1666 8V3.5H7.99992C7.72378 3.5 7.49992 3.27614 7.49992 3Z" fill="currentColor"/>
</svg>
