<svg width="20" height="20" viewBox="0 0 20 20" fill="none" xmlns="http://www.w3.org/2000/svg">
<path fill-rule="evenodd" clip-rule="evenodd" d="M6.58344 5.87564C6.79055 5.59949 7.1823 5.54353 7.45844 5.75064L10.7918 8.25064C10.8154 8.26838 10.8378 8.28778 10.8587 8.3087C11.0166 8.46654 11.3319 8.86474 11.4601 9.39398C11.601 9.9763 11.5011 10.6851 10.8402 11.2937C10.2176 11.867 9.52769 11.9544 8.9315 11.8073C8.38393 11.6723 7.93921 11.3486 7.67555 11.125L2.11325 6.74152C1.84214 6.52787 1.79557 6.13489 2.00922 5.86378C2.22288 5.59267 2.61585 5.5461 2.88696 5.75975L8.45838 10.1505C8.4647 10.1554 8.47092 10.1605 8.47704 10.1658C8.68488 10.343 8.95619 10.526 9.2308 10.5937C9.46344 10.6511 9.71101 10.6343 9.99339 10.3742C10.1555 10.2249 10.2196 10.0963 10.2462 10.0003C10.2736 9.90137 10.2717 9.79793 10.2451 9.68807C10.194 9.47671 10.0632 9.29348 9.9979 9.21773L6.70844 6.75064C6.4323 6.54353 6.37633 6.15178 6.58344 5.87564Z" fill="#4C5E8C"/>
<path fill-rule="evenodd" clip-rule="evenodd" d="M1.04175 3.33398C1.04175 2.98881 1.32157 2.70898 1.66675 2.70898H11.2501C11.4056 2.70898 11.5555 2.76694 11.6705 2.87152L16.2538 7.03819C16.5092 7.27038 16.5281 7.66566 16.2959 7.92107C16.0637 8.17648 15.6684 8.19531 15.413 7.96311L11.0085 3.95898H1.66675C1.32157 3.95898 1.04175 3.67916 1.04175 3.33398Z" fill="#4C5E8C"/>
<path fill-rule="evenodd" clip-rule="evenodd" d="M3.12508 13.7503C3.12527 13.4051 3.40525 13.1255 3.75043 13.1257L18.3338 13.1337C18.6789 13.1339 18.9586 13.4139 18.9584 13.759C18.9582 14.1042 18.6782 14.3839 18.3331 14.3837L3.74974 14.3757C3.40456 14.3755 3.12489 14.0955 3.12508 13.7503Z" fill="#4C5E8C"/>
<path fill-rule="evenodd" clip-rule="evenodd" d="M3.75008 6.87565C4.09526 6.87565 4.37508 7.15547 4.37508 7.50065V16.0423H17.7084V8.12565H9.16683C8.82165 8.12565 8.54183 7.84583 8.54183 7.50065C8.54183 7.15547 8.82165 6.87565 9.16683 6.87565H18.3334C18.6786 6.87565 18.9584 7.15547 18.9584 7.50065V16.6673C18.9584 17.0125 18.6786 17.2923 18.3334 17.2923H3.75008C3.4049 17.2923 3.12508 17.0125 3.12508 16.6673V7.50065C3.12508 7.15547 3.4049 6.87565 3.75008 6.87565Z" fill="#4C5E8C"/>
</svg>
