<svg viewBox="0 0 16 16" fill="currentColor" xmlns="http://www.w3.org/2000/svg">
<path d="M8.83333 2C8.83333 1.72386 9.05719 1.5 9.33333 1.5H14C14.2761 1.5 14.5 1.72386 14.5 2V6.66667C14.5 6.94281 14.2761 7.16667 14 7.16667C13.7239 7.16667 13.5 6.94281 13.5 6.66667V2.5H9.33333C9.05719 2.5 8.83333 2.27614 8.83333 2Z" fill="currentColor"/>
<path d="M3 2.5C2.72386 2.5 2.5 2.72386 2.5 3V13C2.5 13.2762 2.72385 13.5 3 13.5H13C13.2762 13.5 13.5 13.2762 13.5 13V9.82457C13.5 9.54842 13.7239 9.32457 14 9.32457C14.2761 9.32457 14.5 9.54842 14.5 9.82457V13C14.5 13.8284 13.8284 14.5 13 14.5H3C2.17158 14.5 1.5 13.8284 1.5 13V3C1.5 2.17157 2.17157 1.5 3 1.5H6C6.27614 1.5 6.5 1.72386 6.5 2C6.5 2.27614 6.27614 2.5 6 2.5H3Z" fill="currentColor"/>
<path d="M14.0536 1.94644C14.2488 2.14171 14.2488 2.45829 14.0536 2.65355L8.95355 7.75355C8.75829 7.94882 8.44171 7.94882 8.24645 7.75355C8.05118 7.55829 8.05118 7.24171 8.24645 7.04645L13.3464 1.94644C13.5417 1.75118 13.8583 1.75118 14.0536 1.94644Z" fill="currentColor"/>
</svg>
