<svg width="12" height="12" viewBox="0 0 12 12" fill="none" xmlns="http://www.w3.org/2000/svg">
<path fill-rule="evenodd" clip-rule="evenodd" d="M3 1.375C2.10254 1.375 1.375 2.10254 1.375 3C1.375 3.89746 2.10254 4.625 3 4.625H9C9.89746 4.625 10.625 3.89746 10.625 3C10.625 2.10254 9.89746 1.375 9 1.375H3ZM0.625 3C0.625 1.68832 1.68832 0.625 3 0.625H9C10.3117 0.625 11.375 1.68832 11.375 3C11.375 4.31168 10.3117 5.375 9 5.375H3C1.68832 5.375 0.625 4.31168 0.625 3Z" fill="#4C5E8C"/>
<path fill-rule="evenodd" clip-rule="evenodd" d="M3 7.375C2.10254 7.375 1.375 8.10254 1.375 9C1.375 9.89746 2.10254 10.625 3 10.625H9C9.89746 10.625 10.625 9.89746 10.625 9C10.625 8.10254 9.89746 7.375 9 7.375H3ZM0.625 9C0.625 7.68832 1.68832 6.625 3 6.625H9C10.3117 6.625 11.375 7.68832 11.375 9C11.375 10.3117 10.3117 11.375 9 11.375H3C1.68832 11.375 0.625 10.3117 0.625 9Z" fill="#4C5E8C"/>
<path fill-rule="evenodd" clip-rule="evenodd" d="M8.125 3C8.125 2.51674 8.51674 2.125 9 2.125C9.48326 2.125 9.875 2.51674 9.875 3C9.875 3.48326 9.48326 3.875 9 3.875C8.51674 3.875 8.125 3.48326 8.125 3ZM9 2.875C8.93096 2.875 8.875 2.93096 8.875 3C8.875 3.06904 8.93096 3.125 9 3.125C9.06904 3.125 9.125 3.06904 9.125 3C9.125 2.93096 9.06904 2.875 9 2.875Z" fill="#4C5E8C"/>
<path fill-rule="evenodd" clip-rule="evenodd" d="M2.125 9C2.125 8.51674 2.51674 8.125 3 8.125C3.48326 8.125 3.875 8.51674 3.875 9C3.875 9.48326 3.48326 9.875 3 9.875C2.51674 9.875 2.125 9.48326 2.125 9ZM3 8.875C2.93096 8.875 2.875 8.93096 2.875 9C2.875 9.06904 2.93096 9.125 3 9.125C3.06904 9.125 3.125 9.06904 3.125 9C3.125 8.93096 3.06904 8.875 3 8.875Z" fill="#4C5E8C"/>
</svg>
