<svg viewBox="0 0 12 12" fill="currentColor" xmlns="http://www.w3.org/2000/svg">
<path d="M6.00208 2.65013C6.20918 2.65013 6.37708 2.81802 6.37708 3.02513V9C6.37708 9.20711 6.20918 9.375 6.00208 9.375C5.79497 9.375 5.62708 9.20711 5.62708 9V3.02513C5.62708 2.81802 5.79497 2.65013 6.00208 2.65013Z" fill="currentColor"/>
<path d="M5.73483 2.73483C5.88128 2.58839 6.11872 2.58839 6.26517 2.73483L9.26516 5.73483C9.41161 5.88128 9.41161 6.11872 9.26516 6.26517C9.11872 6.41161 8.88128 6.41161 8.73484 6.26517L6 3.53033L3.26517 6.26517C3.11872 6.41161 2.88128 6.41161 2.73483 6.26517C2.58839 6.11872 2.58839 5.88128 2.73483 5.73483L5.73483 2.73483Z" fill="currentColor"/>
</svg>
