<svg  viewBox="0 0 16 16" fill="currentColor" xmlns="http://www.w3.org/2000/svg">
<path d="M14 7.5C14.2761 7.5 14.5 7.72386 14.5 8V14C14.5 14.2761 14.2761 14.5 14 14.5H2C1.72386 14.5 1.5 14.2761 1.5 14V8.00277C1.5 7.72662 1.72386 7.50277 2 7.50277C2.27614 7.50277 2.5 7.72662 2.5 8.00277V13.5H13.5V8C13.5 7.72386 13.7239 7.5 14 7.5Z" fill="currentColor"/>
<path d="M7.64645 1.64645C7.84171 1.45118 8.15829 1.45118 8.35355 1.64645L11.3536 4.64645C11.5488 4.84171 11.5488 5.15829 11.3536 5.35355C11.1583 5.54882 10.8417 5.54882 10.6464 5.35355L8 2.70711L5.35355 5.35355C5.15829 5.54882 4.84171 5.54882 4.64645 5.35355C4.45118 5.15829 4.45118 4.84171 4.64645 4.64645L7.64645 1.64645Z" fill="currentColor"/>
<path d="M7.99723 1.5C8.27338 1.5 8.49723 1.72386 8.49723 2V10.6667C8.49723 10.9428 8.27338 11.1667 7.99723 11.1667C7.72109 11.1667 7.49723 10.9428 7.49723 10.6667V2C7.49723 1.72386 7.72109 1.5 7.99723 1.5Z" fill="currentColor"/>
</svg>
