<svg viewBox="0 0 15 12" fill="none" xmlns="http://www.w3.org/2000/svg">
<path fill-rule="evenodd" clip-rule="evenodd" d="M1.16667 1C1.07462 1 1 1.07462 1 1.16667V10.5C1 10.5921 1.07461 10.6667 1.16667 10.6667H13.1667C13.2587 10.6667 13.3333 10.5921 13.3333 10.5V1.16667C13.3333 1.07461 13.2587 1 13.1667 1H1.16667ZM0 1.16667C0 0.522334 0.522334 0 1.16667 0H13.1667C13.811 0 14.3333 0.522339 14.3333 1.16667V10.5C14.3333 11.1443 13.811 11.6667 13.1667 11.6667H1.16667C0.522339 11.6667 0 11.1443 0 10.5V1.16667Z" fill="#7684A7"/>
<path fill-rule="evenodd" clip-rule="evenodd" d="M11.1667 0C11.4428 0 11.6667 0.223858 11.6667 0.5V11.1667C11.6667 11.4428 11.4428 11.6667 11.1667 11.6667C10.8905 11.6667 10.6667 11.4428 10.6667 11.1667V0.5C10.6667 0.223858 10.8905 0 11.1667 0Z" fill="#7684A7"/>
<path fill-rule="evenodd" clip-rule="evenodd" d="M3.16667 0C3.44281 0 3.66667 0.223858 3.66667 0.5V11.1667C3.66667 11.4428 3.44281 11.6667 3.16667 11.6667C2.89052 11.6667 2.66667 11.4428 2.66667 11.1667V0.5C2.66667 0.223858 2.89052 0 3.16667 0Z" fill="#7684A7"/>
<path fill-rule="evenodd" clip-rule="evenodd" d="M11.3333 3.83333C11.3333 3.55719 11.5572 3.33333 11.8333 3.33333H13.8333C14.1095 3.33333 14.3333 3.55719 14.3333 3.83333C14.3333 4.10948 14.1095 4.33333 13.8333 4.33333H11.8333C11.5572 4.33333 11.3333 4.10948 11.3333 3.83333Z" fill="#7684A7"/>
<path fill-rule="evenodd" clip-rule="evenodd" d="M11.3333 7.83333C11.3333 7.55719 11.5572 7.33333 11.8333 7.33333H13.8333C14.1095 7.33333 14.3333 7.55719 14.3333 7.83333C14.3333 8.10948 14.1095 8.33333 13.8333 8.33333H11.8333C11.5572 8.33333 11.3333 8.10948 11.3333 7.83333Z" fill="#7684A7"/>
<path fill-rule="evenodd" clip-rule="evenodd" d="M0 3.83333C0 3.55719 0.223858 3.33333 0.5 3.33333H2.5C2.77614 3.33333 3 3.55719 3 3.83333C3 4.10948 2.77614 4.33333 2.5 4.33333H0.5C0.223858 4.33333 0 4.10948 0 3.83333Z" fill="#7684A7"/>
<path fill-rule="evenodd" clip-rule="evenodd" d="M0.5 2.66667C0.776142 2.66667 1 2.89052 1 3.16667V4.5C1 4.77614 0.776142 5 0.5 5C0.223858 5 0 4.77614 0 4.5V3.16667C0 2.89052 0.223858 2.66667 0.5 2.66667Z" fill="#7684A7"/>
<path fill-rule="evenodd" clip-rule="evenodd" d="M1.66667 0.5C1.66667 0.223858 1.89052 0 2.16667 0H4.16667C4.44281 0 4.66667 0.223858 4.66667 0.5C4.66667 0.776142 4.44281 1 4.16667 1H2.16667C1.89052 1 1.66667 0.776142 1.66667 0.5Z" fill="#7684A7"/>
<path fill-rule="evenodd" clip-rule="evenodd" d="M1.66667 11.1667C1.66667 10.8905 1.89052 10.6667 2.16667 10.6667H4.16667C4.44281 10.6667 4.66667 10.8905 4.66667 11.1667C4.66667 11.4428 4.44281 11.6667 4.16667 11.6667H2.16667C1.89052 11.6667 1.66667 11.4428 1.66667 11.1667Z" fill="#7684A7"/>
<path fill-rule="evenodd" clip-rule="evenodd" d="M9.66667 0.5C9.66667 0.223858 9.89052 0 10.1667 0H12.1667C12.4428 0 12.6667 0.223858 12.6667 0.5C12.6667 0.776142 12.4428 1 12.1667 1H10.1667C9.89052 1 9.66667 0.776142 9.66667 0.5Z" fill="#7684A7"/>
<path fill-rule="evenodd" clip-rule="evenodd" d="M9.66667 11.1667C9.66667 10.8905 9.89052 10.6667 10.1667 10.6667H12.1667C12.4428 10.6667 12.6667 10.8905 12.6667 11.1667C12.6667 11.4428 12.4428 11.6667 12.1667 11.6667H10.1667C9.89052 11.6667 9.66667 11.4428 9.66667 11.1667Z" fill="#7684A7"/>
<path fill-rule="evenodd" clip-rule="evenodd" d="M0 7.83333C0 7.55719 0.223858 7.33333 0.5 7.33333H2.5C2.77614 7.33333 3 7.55719 3 7.83333C3 8.10948 2.77614 8.33333 2.5 8.33333H0.5C0.223858 8.33333 0 8.10948 0 7.83333Z" fill="#7684A7"/>
<path fill-rule="evenodd" clip-rule="evenodd" d="M0.5 6.66667C0.776142 6.66667 1 6.89052 1 7.16667V8.5C1 8.77614 0.776142 9 0.5 9C0.223858 9 0 8.77614 0 8.5V7.16667C0 6.89052 0.223858 6.66667 0.5 6.66667Z" fill="#7684A7"/>
<path fill-rule="evenodd" clip-rule="evenodd" d="M13.8333 6.66667C14.1095 6.66667 14.3333 6.89052 14.3333 7.16667V8.5C14.3333 8.77614 14.1095 9 13.8333 9C13.5572 9 13.3333 8.77614 13.3333 8.5V7.16667C13.3333 6.89052 13.5572 6.66667 13.8333 6.66667Z" fill="#7684A7"/>
<path fill-rule="evenodd" clip-rule="evenodd" d="M13.8333 2.66667C14.1095 2.66667 14.3333 2.89052 14.3333 3.16667V4.5C14.3333 4.77614 14.1095 5 13.8333 5C13.5572 5 13.3333 4.77614 13.3333 4.5V3.16667C13.3333 2.89052 13.5572 2.66667 13.8333 2.66667Z" fill="#7684A7"/>
<path fill-rule="evenodd" clip-rule="evenodd" d="M5.92428 3.72935C6.08326 3.64123 6.27753 3.64633 6.43167 3.74267L9.09833 5.40933C9.24452 5.5007 9.33333 5.66094 9.33333 5.83333C9.33333 6.00573 9.24452 6.16596 9.09833 6.25733L6.43167 7.924C6.27753 8.02033 6.08326 8.02544 5.92428 7.93732C5.7653 7.84921 5.66667 7.68176 5.66667 7.5V4.16667C5.66667 3.9849 5.7653 3.81746 5.92428 3.72935ZM6.66667 5.06879V6.59788L7.88993 5.83333L6.66667 5.06879Z" fill="#7684A7"/>
</svg>
