<svg viewBox="0 0 20 20" fill="currentColor" xmlns="http://www.w3.org/2000/svg">
<path fill-rule="evenodd" clip-rule="evenodd" d="M12.9313 1.12485C13.2303 0.952265 13.6125 1.05469 13.7851 1.35362L15.7069 4.68233C15.8186 4.87581 15.8186 5.1142 15.7068 5.30762C15.595 5.50104 15.3884 5.62007 15.165 5.61983L7.49207 5.61149C7.20932 5.61119 6.96199 5.42109 6.88896 5.14793C6.81593 4.87477 6.93538 4.5866 7.18025 4.44523L12.9313 1.12485ZM9.82091 4.36402L14.0825 4.36865L13.0151 2.51988L9.82091 4.36402Z" fill="currentColor"/>
<path fill-rule="evenodd" clip-rule="evenodd" d="M2.50002 5.62445C2.38495 5.62445 2.29169 5.71772 2.29169 5.83278V17.4995C2.29169 17.6145 2.38495 17.7078 2.50002 17.7078H17.5C17.6151 17.7078 17.7084 17.6145 17.7084 17.4995V5.83278C17.7084 5.71771 17.6151 5.62445 17.5 5.62445H2.50002ZM1.04169 5.83278C1.04169 5.02735 1.69461 4.37445 2.50002 4.37445H17.5C18.3054 4.37445 18.9584 5.02736 18.9584 5.83278V17.4995C18.9584 18.3049 18.3054 18.9578 17.5 18.9578H2.50002C1.69461 18.9578 1.04169 18.3049 1.04169 17.4995V5.83278Z" fill="currentColor"/>
<path fill-rule="evenodd" clip-rule="evenodd" d="M11.875 11.6661C11.875 10.142 13.1633 8.95778 14.6875 8.95778H18.3334C18.6785 8.95778 18.9584 9.23761 18.9584 9.58278V13.7495C18.9584 14.0946 18.6785 14.3745 18.3334 14.3745H14.6875C13.1633 14.3745 11.875 13.1903 11.875 11.6661ZM14.6875 10.2078C13.7955 10.2078 13.125 10.8891 13.125 11.6661C13.125 12.4431 13.7955 13.1245 14.6875 13.1245H17.7084V10.2078H14.6875Z" fill="currentColor"/>
<path fill-rule="evenodd" clip-rule="evenodd" d="M18.3334 6.24945C18.6785 6.24945 18.9584 6.52927 18.9584 6.87445V16.8745C18.9584 17.2196 18.6785 17.4995 18.3334 17.4995C17.9882 17.4995 17.7084 17.2196 17.7084 16.8745V6.87445C17.7084 6.52927 17.9882 6.24945 18.3334 6.24945Z" fill="currentColor"/>
</svg>
